<svg fill="none" height="24" viewBox="0 0 24 24" width="24" xmlns="http://www.w3.org/2000/svg">
    <g stroke="rgb(209, 131, 131)" stroke-linecap="round" stroke-linejoin="round" stroke-width="1.5">
        <path d="m12 3h-6c-1.06087 0-2.07828.42149-2.82843 1.17163-.75015.75015-1.17157 1.7675-1.17157 2.82837v7c0 1.0609.42142 2.0783 1.17157 2.8285.75015.7501 1.76756 1.1715 2.82843 1.1715h2l2.29 2.29c.224.2256.4904.4046.7839.5268.2935.1221.6082.185.9261.185s.6326-.0629.9261-.185c.2935-.1222.5599-.3012.7839-.5268l2.29-2.29h2c1.0609 0 2.0783-.4214 2.8284-1.1715.7502-.7502 1.1716-1.7676 1.1716-2.8285v-4"/>
        <path d="m20.6 1.00003c-.592.00172-1.1623.21707-1.6.60419-.3433-.30319-.77-.50283-1.2281-.57459-.4581-.071754-.9279-.01253-1.3519.17048-.4241.183-.7841.48187-1.0362.86015-.2522.37828-.3855.81963-.3838 1.27022 0 2.78358 4 4.66952 4 4.66952s4-1.88594 4-4.66952c0-.61807-.2528-1.21082-.7029-1.64787-.4501-.43704-1.0606-.68258-1.6971-.68258z"/>
    </g>
</svg>